<?xml version="1.0" encoding="UTF-8"?>
<svg id="Layer_2" data-name="Layer 2" xmlns="http://www.w3.org/2000/svg" viewBox="0 0 157.80597 122.08594">
  <defs>
    <style>
      .cls-1 {
        fill: #13ace8;
      }

      .cls-2 {
        fill: #964aed;
      }

      .cls-3 {
        font-family: W95FARegular, W95FA;
        font-size: 115.17562px;
      }
    </style>
  </defs>
  <g id="Layer_1-2" data-name="Layer 1">
    <rect y="48.73509" width="8.5958" height="8.5958"/>
    <rect class="cls-1" x=".14326" y="66.92953" width="8.5958" height="8.5958"/>
    <rect class="cls-2" x=".14326" y="84.69417" width="8.5958" height="8.5958"/>
    <rect x="15.90222" y="58.62026" width="8.5958" height="8.5958"/>
    <rect class="cls-1" x="15.90222" y="76.67143" width="8.5958" height="8.5958"/>
    <rect class="cls-2" x="15.90222" y="95.29566" width="8.5958" height="8.5958"/>
    <polyline points="19.91359 52.88973 28.50939 52.88973 28.50939 61.48553 19.91359 61.48553"/>
    <polyline class="cls-1" points="19.91359 70.9409 28.50939 70.9409 28.50939 79.5367 19.91359 79.5367"/>
    <polyline class="cls-2" points="19.91359 89.56513 28.50939 89.56513 28.50939 98.16092 19.91359 98.16092"/>
    <polyline points="35.01338 60.87464 44.06794 60.87464 44.06794 69.9292 35.01338 69.9292"/>
    <polyline class="cls-1" points="35.01338 79.88922 44.06794 79.88922 44.06794 88.94378 35.01338 88.94378"/>
    <polyline class="cls-2" points="35.01338 99.50744 44.06794 99.50744 44.06794 108.562 35.01338 108.562"/>
    <polyline points="39.23884 54.83827 48.2934 54.83827 48.2934 63.89283 39.23884 63.89283"/>
    <polyline class="cls-1" points="39.23884 73.85285 48.2934 73.85285 48.2934 82.90741 39.23884 82.90741"/>
    <polyline class="cls-2" points="39.23884 93.47106 48.2934 93.47106 48.2934 102.52562 39.23884 102.52562"/>
    <polyline points="54.81993 54.45436 65.11799 54.45436 65.11799 64.75241 54.81993 64.75241"/>
    <polyline class="cls-1" points="54.81993 76.08027 65.11799 76.08027 65.11799 86.37832 54.81993 86.37832"/>
    <polyline class="cls-2" points="54.81993 98.39272 65.11799 98.39272 65.11799 108.69077 54.81993 108.69077"/>
    <polyline points="59.62569 47.58899 69.92374 47.58899 69.92374 57.88704 59.62569 57.88704"/>
    <polyline class="cls-1" points="59.62569 69.2149 69.92374 69.2149 69.92374 79.51295 59.62569 79.51295"/>
    <polyline class="cls-2" points="59.62569 91.52735 69.92374 91.52735 69.92374 101.8254 59.62569 101.8254"/>
    <polyline points="64.90671 47.54754 75.20477 47.54754 75.20477 57.84559 64.90671 57.84559"/>
    <polyline class="cls-1" points="64.90671 69.17345 75.20477 69.17345 75.20477 79.4715 64.90671 79.4715"/>
    <polyline class="cls-2" points="64.90671 91.4859 75.20477 91.4859 75.20477 101.78395 64.90671 101.78395"/>
    <polyline points="68.91808 44.10922 79.21614 44.10922 79.21614 54.40727 68.91808 54.40727"/>
    <polyline class="cls-1" points="68.91808 65.73513 79.21614 65.73513 79.21614 76.03319 68.91808 76.03319"/>
    <polyline class="cls-2" points="68.91808 88.04758 79.21614 88.04758 79.21614 98.34564 68.91808 98.34564"/>
    <text class="cls-3" transform="translate(81.79129 99.05112)"><tspan x="0" y="0">m</tspan></text>
  </g>
</svg>