<?xml version="1.0" encoding="UTF-8"?>
<svg id="Layer_2" data-name="Layer 2" xmlns="http://www.w3.org/2000/svg" viewBox="0 0 466.47598 122.08594">
  <defs>
    <style>
      .cls-1 {
        fill: #13ace8;
      }

      .cls-2 {
        fill: #964aed;
      }

      .cls-3 {
        font-family: W95FARegular, W95FA;
        font-size: 115.17562px;
      }
    </style>
  </defs>
  <g id="Layer_1-2" data-name="Layer 1">
    <rect y="48.73526" width="8.5958" height="8.5958"/>
    <rect class="cls-1" x=".14326" y="66.92969" width="8.5958" height="8.5958"/>
    <rect class="cls-2" x=".14326" y="84.69434" width="8.5958" height="8.5958"/>
    <rect x="15.90222" y="58.62042" width="8.5958" height="8.5958"/>
    <rect class="cls-1" x="15.90222" y="76.67159" width="8.5958" height="8.5958"/>
    <rect class="cls-2" x="15.90222" y="95.29582" width="8.5958" height="8.5958"/>
    <polyline points="19.91359 52.88989 28.50939 52.88989 28.50939 61.48569 19.91359 61.48569"/>
    <polyline class="cls-1" points="19.91359 70.94106 28.50939 70.94106 28.50939 79.53686 19.91359 79.53686"/>
    <polyline class="cls-2" points="19.91359 89.56529 28.50939 89.56529 28.50939 98.16108 19.91359 98.16108"/>
    <polyline points="35.01338 60.87481 44.06794 60.87481 44.06794 69.92937 35.01338 69.92937"/>
    <polyline class="cls-1" points="35.01338 79.88938 44.06794 79.88938 44.06794 88.94394 35.01338 88.94394"/>
    <polyline class="cls-2" points="35.01338 99.5076 44.06794 99.5076 44.06794 108.56216 35.01338 108.56216"/>
    <polyline points="39.23884 54.83843 48.2934 54.83843 48.2934 63.89299 39.23884 63.89299"/>
    <polyline class="cls-1" points="39.23884 73.85301 48.2934 73.85301 48.2934 82.90757 39.23884 82.90757"/>
    <polyline class="cls-2" points="39.23884 93.47122 48.2934 93.47122 48.2934 102.52578 39.23884 102.52578"/>
    <polyline points="54.81993 54.45452 65.11799 54.45452 65.11799 64.75257 54.81993 64.75257"/>
    <polyline class="cls-1" points="54.81993 76.08043 65.11799 76.08043 65.11799 86.37848 54.81993 86.37848"/>
    <polyline class="cls-2" points="54.81993 98.39288 65.11799 98.39288 65.11799 108.69093 54.81993 108.69093"/>
    <polyline points="59.62569 47.58915 69.92374 47.58915 69.92374 57.8872 59.62569 57.8872"/>
    <polyline class="cls-1" points="59.62569 69.21506 69.92374 69.21506 69.92374 79.51312 59.62569 79.51312"/>
    <polyline class="cls-2" points="59.62569 91.52751 69.92374 91.52751 69.92374 101.82556 59.62569 101.82556"/>
    <polyline points="64.90671 47.5477 75.20477 47.5477 75.20477 57.84575 64.90671 57.84575"/>
    <polyline class="cls-1" points="64.90671 69.17361 75.20477 69.17361 75.20477 79.47167 64.90671 79.47167"/>
    <polyline class="cls-2" points="64.90671 91.48606 75.20477 91.48606 75.20477 101.78412 64.90671 101.78412"/>
    <polyline points="68.91808 44.10938 79.21614 44.10938 79.21614 54.40743 68.91808 54.40743"/>
    <polyline class="cls-1" points="68.91808 65.73529 79.21614 65.73529 79.21614 76.03335 68.91808 76.03335"/>
    <polyline class="cls-2" points="68.91808 88.04774 79.21614 88.04774 79.21614 98.3458 68.91808 98.3458"/>
    <text class="cls-3" transform="translate(81.79129 99.05127)"><tspan x="0" y="0">media95</tspan></text>
  </g>
</svg>